# xmcd CD database file
#
# Track frame offsets:
#	150
#	17011
#	32512
#
# Disc length: 680 seconds
#
# Revision: 0
# Processed by: cddbd v1.5.1PL2 Copyright (c) Steve Scherf et al.
# Submitted via: CDex 1.51
#
DISCID=1602a603
DTITLE=Kaffeehaus Blues Projekt - Samplerbeitrag
DYEAR=2005
DGENRE=Blues
TTITLE0=Der Blues mit dem Blues
TTITLE1=Halbe Welt Blues
TTITLE2=Guten Morgen, Blues
EXTD=YEAR: 2005
EXTT0=
EXTT1=
EXTT2=
PLAYORDER=
